PathFileType	4	(X/Y/Z)	Patient4_TMGait_0pt6_02_left_43.trc.trc
DataRate	CameraRate	NumFrames	NumMarkers	Units	OrigDataRate	OrigDataStartFrame	OrigNumFrames
83.832335329341	83.832335329341	6	33	mm	83.832335329341	1	       141
Frame#	Time	Sacral			L.Shoulder			Chest			R.Shoulder			Neck			R.ASIS			L.ASIS			R.Thigh.Superior			R.Thigh.Lateral			R.Thigh.Inferior			R.Patella			L.Thigh.Superior			L.Thigh.Lateral			L.Thigh.Inferior			L.Patella			L.Shank.Superior			L.Shank.Lateral			L.Shank.Inferior			R.Shank.Superior			R.Shank.Lateral			R.Shank.Inferior			R.Heel			R.Midfoot.Superior			R.Midfoot.Lateral			R.Toe			L.Heel			L.Midfoot.Lateral			L.Midfoot.Superior			L.Toe			L.Elbow			L.Wrist			R.Elbow			R.Wrist			
		X1	Y1	Z1	X2	Y2	Z2	X3	Y3	Z3	X4	Y4	Z4	X5	Y5	Z5	X6	Y6	Z6	X7	Y7	Z7	X8	Y8	Z8	X9	Y9	Z9	X10	Y10	Z10	X11	Y11	Z11	X12	Y12	Z12	X13	Y13	Z13	X14	Y14	Z14	X15	Y15	Z15	X16	Y16	Z16	X17	Y17	Z17	X18	Y18	Z18	X19	Y19	Z19	X20	Y20	Z20	X21	Y21	Z21	X22	Y22	Z22	X23	Y23	Z23	X24	Y24	Z24	X25	Y25	Z25	X26	Y26	Z26	X27	Y27	Z27	X28	Y28	Z28	X29	Y29	Z29	X30	Y30	Z30	X31	Y31	Z31	X32	Y32	Z32	X33	Y33	Z33	

1	52.500000000000	871.402806933136	1020.727024461949	538.638171487973	1076.685360628806	1439.114531438833	353.232038977747	1182.684763377132	1355.162591242656	504.496321512870	1119.201730392458	1434.747918340838	683.233971395176	1092.508970450739	1495.176624578589	504.909823050617	1101.036858651934	943.101748733291	640.451987424455	1070.231845388241	965.467849114426	367.506256243075	1134.803489935352	743.161904625296	616.752135815401	1047.483783786158	637.070924704295	671.218379006385	1125.379683193602	584.128199690421	591.789455177399	1122.622209764536	496.729247336260	596.316880925297	1148.726712680992	788.785809811266	389.138816227603	1101.627557488046	663.022721160597	310.388205396162	1210.484381385476	600.443316001839	362.424290590254	1224.005939149798	509.940366857116	353.108659404335	1157.559229979870	442.190062174850	352.299392140019	1014.003320932823	397.854814974776	312.245665040802	1006.276868730653	270.061770687403	370.465875488064	1094.907814908541	409.034676780799	601.262349197728	1020.585797435754	304.398836119330	658.080184473379	1066.021847522858	210.913461650448	594.078716835061	932.348988947394	46.322831163163	554.989889452224	1105.043527847002	97.887223162002	592.939440215551	1015.405081096729	37.352711918246	629.480086852363	1224.006477713871	41.120585711756	619.517544307742	817.930881875028	200.069199346153	419.232910450115	873.450036939809	155.739807978146	336.672753811887	978.947368670402	169.406846333070	352.469923452306	1060.799856060345	60.359384534134	322.074055369240	994.518506677335	1091.549706520392	246.741333976450	1041.152735281061	833.371378336879	234.926698845616	1164.360564691011	1088.321789867338	806.573676955365	1331.332667670403	890.792942312653	760.409591356524	
2	52.511928571429	870.345576509498	1021.151127964323	539.467814727718	1074.783509913779	1439.545340912864	354.099005326762	1181.566883888753	1355.488900590486	504.644107413673	1119.124582916082	1434.993078225209	683.808243257259	1091.405769533391	1495.491032307094	505.767554224388	1100.156902297142	943.212527383513	640.848664828540	1068.718971129264	965.857671444312	368.142353477119	1131.719442974977	742.479579368469	616.039368166268	1044.028815272959	637.101817524859	671.380153418108	1120.857421672117	583.405039037877	591.583786777964	1117.179919726263	496.323120416540	596.126821370744	1148.963960330488	791.504808501530	389.152524442176	1103.745434822985	665.072862246575	310.332977889073	1213.524852288523	604.363941418709	362.411985080506	1228.952741390198	514.779039155040	353.105965095306	1165.355152920685	445.421564420434	351.970319932387	1024.280198009839	394.913839545791	311.774601814262	1022.658459136758	266.807175354238	369.295841338886	1089.045676492158	408.729450016629	601.114931896001	1014.440814390351	304.518935168382	658.203536506242	1059.234845008784	210.766019320958	594.022377557838	924.761387309445	46.365762990465	555.133727676009	1097.521755194018	97.860001240423	593.039683826159	1007.873279453183	37.415593340297	629.647547355878	1216.434814459623	41.009816417117	619.619145427639	838.489582539216	188.076761500271	417.788807926439	895.661010500583	146.909216008411	334.946776912865	1000.181048382323	165.331257980925	350.719923148515	1086.677345596579	60.661692496265	319.650588284623	985.932107875590	1093.494409205461	248.575705259086	1020.208918529822	834.757708839127	236.942443641185	1174.789925368061	1091.161302687966	805.731757245497	1352.387301536735	907.291629603515	753.609535774448	
3	52.523857142857	869.316722695286	1021.559501101462	540.283685352724	1072.898847331857	1439.962219092933	354.940091054807	1180.468780504092	1355.801316807196	504.765057055960	1119.062229854456	1435.212334070239	684.350005289646	1090.314704798547	1495.784492360862	506.597135770865	1099.295666732888	943.299291178743	641.184810334129	1067.238030960665	966.234911891533	368.723762374803	1128.641272501858	741.784539437809	615.284376833169	1040.562325416753	637.114707862384	671.530579274005	1116.302896618920	582.663439163778	591.363152309209	1111.704967415063	495.908376726079	595.927199099308	1149.138085313158	794.127148434722	389.201877396511	1105.789582922064	667.049760811741	310.309265853234	1216.404204651770	608.146103301759	362.508157143407	1233.715130113409	519.495264439532	353.178578965175	1172.967921587831	448.571451400100	351.683204653901	1034.459826012102	391.897789790558	311.288262860260	1038.954325791896	263.534692752213	368.107889131748	1083.174956247616	408.417798129342	600.961759774785	1008.304798008115	304.612454035801	658.314271233640	1052.477999956531	210.609725482732	593.958018854524	917.252065041537	46.384719302318	555.272580514257	1090.069186643770	97.831169908167	593.129012092581	1000.415372176856	37.467040945283	629.807259243415	1208.937434979543	40.914135222451	619.710498232650	859.054685120880	176.081028293212	416.265215755248	917.863006434949	138.115210895259	333.156047795857	1021.348284272164	161.284003480734	348.952007845455	1112.460773447354	61.050503453862	317.229655492575	977.424059898806	1095.470989871012	250.317283714181	999.738990191551	836.245380808372	238.928515420668	1184.979679337730	1093.981667163261	804.875773144821	1372.956152411103	923.841976140281	746.828935369759	
4	52.535785714286	868.341224974146	1021.927669994508	541.063644140694	1071.047063480855	1440.344901003303	355.723275203574	1179.408238842267	1356.073773712857	504.823688386311	1119.028447891422	1435.366893713497	684.819397054157	1089.248534393021	1496.027267432831	507.365940463884	1098.469431340077	943.337708490714	641.406472911844	1065.815662455186	966.567855964422	369.194650116617	1125.555240329988	741.058153064739	614.468181985086	1037.042146752805	637.095411132206	671.662584672353	1111.654483572956	581.884122190401	591.124359213092	1106.131254078389	495.475010679603	595.718051359634	1149.173601857736	796.534601151040	389.322189685484	1107.670613552959	668.861239474529	310.330684279664	1218.948810330128	611.628408986160	362.800110777257	1238.098395905532	523.962232253960	353.394094182957	1180.230910121816	451.564134809835	351.476844518329	1044.520234622882	388.721950936371	310.757449245718	1055.176722409484	260.252093097454	366.887621760149	1077.244548179216	408.095469112443	600.802538021623	1002.137769525575	304.658707466940	658.406396007951	1045.727516759941	210.437641338217	593.881886030869	909.836999979648	46.360488965388	555.403374219164	1082.694059866902	97.799961373604	593.199998133886	993.043827563992	37.498797008909	629.954516563934	1201.527650535281	40.845400544735	619.784303939321	879.794038033893	164.088654513393	414.579275934876	940.219804423728	129.413270357047	331.249043002373	1042.524398485788	157.332334829633	347.161454028797	1138.203360509830	61.689653846928	314.862263721070	969.033368897536	1097.523356510561	251.884450712093	980.113896277086	837.937732764017	240.866630072567	1194.765680396104	1096.781304363583	803.963575765748	1392.577887206501	940.635221359093	740.035776250525	
5	52.547714285714	867.436952120865	1022.233801994071	541.785124055075	1069.241903034668	1440.674210888853	356.420917386887	1178.399500982709	1356.279872757824	504.789137670053	1119.033925527943	1435.419750464359	685.183272662266	1088.218714066445	1496.191326827314	508.046993774788	1097.690787205238	943.307842228162	641.475685930026	1064.469189020724	966.821216582799	369.511830187006	1122.442230609214	740.282190743599	613.591981543746	1033.421000409906	637.034621257225	671.773182508669	1106.852582852607	581.051741312196	590.872816825660	1100.396550664532	495.014958003203	595.506240854924	1149.004545452845	798.624300842158	389.543127072974	1109.310990702397	670.425964806469	310.402095034272	1221.014455017798	614.672881919580	363.349858347122	1241.944482741310	528.075891069977	353.803397668949	1187.016594051821	454.340416877553	351.383697506512	1054.474477998755	385.319902326543	310.150248589453	1071.366337486434	256.982799154638	365.627665879417	1071.199513547077	407.760627023236	600.642024883699	995.890480194843	304.643576659889	658.477618865195	1038.947706696344	210.244632569082	593.792439646425	902.508634053737	46.278440467277	555.523837434259	1075.382564964120	97.765502070150	593.246979312502	985.748063802464	37.505714932181	630.086362913538	1194.195964294076	40.812187539819	619.835561318987	900.892819695917	152.125324069172	412.658722446527	962.919910686096	120.870668364759	329.188944387241	1063.814718926410	153.554693131644	345.355017920744	1163.990322031388	62.746458917789	312.619139631658	960.781353602564	1099.688521653825	253.220034952195	961.593788565650	839.910862443751	242.745897399609	1204.045145961145	1099.560173885578	802.949666339370	1410.887366002577	957.862218096528	733.190832684432	
6	52.559642857143	866.614042238757	1022.460002527161	542.424890005649	1067.497156964464	1440.932986639888	357.010589278002	1177.453569577952	1356.394681212387	504.637866595070	1119.084758674911	1435.339254662713	685.417121567350	1087.236213511960	1496.252597262532	508.619813564318	1096.968516228788	943.196670600437	641.375632834003	1063.208513292241	966.958785285694	369.648145357318	1119.286289515257	739.442379492077	612.679055880429	1029.658487449784	636.929288454173	671.863390483253	1101.855273033523	580.158504876477	590.622410109120	1094.459967700301	494.523247813831	595.304704749168	1148.582077343457	800.314202933185	389.883908015578	1110.648879292862	671.677543599479	310.517107818636	1222.497767793601	617.172141051784	364.183067406882	1245.140496246685	531.757149211970	354.432868059548	1193.237012208558	456.858224063201	351.425486418097	1064.351010932506	381.656900997333	309.437121213802	1087.558114414034	253.770631042093	364.331778664982	1064.997296611083	407.414431697765	600.489473602917	989.520307735681	304.561591911265	658.529824314315	1032.105575213168	210.028505741577	593.691008118326	895.246449774769	46.131675740498	555.631713904745	1068.111075351425	97.727012205602	593.266872710515	978.505899845808	37.486341132759	630.201446843859	1186.921776982940	40.818582272394	619.862307007583	922.496185970486	140.257794501100	410.456570773404	986.115856268608	112.576096395634	326.964868197601	1085.304890490495	150.040365014599	343.555030789447	1189.882477962120	64.372642055469	310.589939597881	952.684026665298	1101.988514658804	254.294209342179	944.330567635224	842.201900131320	244.560570084352	1212.773872260135	1102.316478333974	801.790582391414	1427.619114124991	975.666350986701	726.262397657388	
